<svg width="1031" height="634" viewBox="0 0 1031 634" fill="none" xmlns="http://www.w3.org/2000/svg">
<path d="M486.5 0.900002C481.6 1.2 476.6 2.00001 475.5 2.60001C474.4 3.2 466.5 4.00001 458 4.3C443.9 4.8 420.2 7.50001 419 8.8C418.7 9.00001 419.1 9.50001 419.8 9.7C421.1 10.2 421.5 13 420.3 13C419.8 13.1 414.6 13.7 408.6 14.4C397 15.9 394.5 17.2 397.9 20.1C399.7 21.6 402.7 22.3 417.3 24.9C427.2 26.7 431.4 31.4 427.5 36.6C425.3 39.6 425.7 40.6 429.8 41.7L433.5 42.7L429.3 43.5C425.9 44.1 425 44.7 425 46.3C425 48 425.5 48.2 428.4 47.7C431.2 47.3 431.8 47.4 431.3 48.6C431 49.4 429.8 50 428.5 50C427.1 50 425.2 51.3 423.6 53.4C421.3 56.5 421 57.7 421 65.6C421 77 423.4 86 426.4 86C427.5 86 430 86.9 431.9 88.1C436.9 91.1 441.1 90.1 445.3 84.6C447.1 82.2 451.4 77.2 454.8 73.5L461 66.7L470.8 64.5C477.9 62.9 482.1 61.3 486 58.7C491.3 55.2 513.8 47.5 520.5 46.8C523.3 46.5 523.5 46.2 523.8 42.3C524.1 37.8 526.2 35.4 533.1 31.7C535.5 30.3 536 29.6 535.1 29C533.3 28 534.5 23 536.5 23C538.8 23 539.2 21.2 537.5 18.1C535.8 14.7 535.6 14.8 543.5 12.2C546.8 11.1 552 9.00001 555 7.50001L560.5 4.9L553.5 5.50001C549.7 5.8 545.5 6.3 544.3 6.60001C543.1 6.8 541.8 6.4 541.3 5.60001C540.9 4.9 536.3 3.3 531.2 2.10001C521.5 -0.0999985 507.9 -0.399994 486.5 0.900002Z" fill="white" fill-opacity="0.2"/>
<path d="M390 3.10002C382.2 4.50002 356.1 7.00002 354.6 6.40002C353.8 6.10002 351.3 7.10002 348.9 8.70002C346 10.6 344.5 11.1 344.2 10.2C343.4 7.70002 342 9.10002 342 12.4C342 16.8 345 19.2 349.3 18.3C355.1 17.1 351.1 19.9 343.9 22C337.6 23.9 336.6 24 335.2 22.6C334.2 21.8 331.7 21 329.5 20.8C325.8 20.5 325.5 20.7 325 23.5C324.6 26 324 26.5 321.5 26.5C319.3 26.5 318.6 26.1 318.8 24.8C319.1 22.9 318.6 22.5 314.5 21.6C311.9 21 311.2 21.3 309.6 24C308.6 25.7 308 27.3 308.3 27.6C308.5 27.9 312.7 28.5 317.6 29.1L326.5 30.1L328.6 27.4C330.7 24.8 333.4 24.8 332.4 27.3C331.6 29.5 343.3 31.2 350.3 30.1C353.5 29.5 357.4 29.3 358.8 29.6C361.7 30.2 366.1 27.7 364.7 26.4C364.3 26 359.7 25.6 354.5 25.5C346.1 25.5 345.2 25.3 346.6 24C347.7 22.9 350.6 22.5 357.9 22.4C363.2 22.4 368.1 22 368.7 21.7C369.3 21.3 370.5 21.3 371.4 21.6C372.2 21.9 377.3 20.1 382.7 17.5C388.1 14.9 395.7 11.9 399.5 10.9C406 9.10002 409.5 8.30002 426.8 4.90002C430.2 4.20002 433 3.40002 433 3.10002C433 2.20002 395 2.20002 390 3.10002Z" fill="white" fill-opacity="0.2"/>
<path d="M331.3 13C329.3 13.8 329.1 14.2 330.1 16.4C332.4 21.5 336.8 20.8 336.2 15.5C335.8 11.9 335 11.5 331.3 13Z" fill="white" fill-opacity="0.2"/>
<path d="M291.7 14.6C290.1 15.4 288 17 286.9 18.1C285 20 285 20 287.8 20C291.1 20 297.3 16.4 296.8 14.8C296.2 13 294.8 12.9 291.7 14.6Z" fill="white" fill-opacity="0.2"/>
<path d="M312.7 13.7C311.2 15.2 312.3 16 317.5 17.5C321.6 18.7 323.4 18.9 325 18C327.8 16.5 326.9 15.5 321.6 14.1C316.5 12.8 313.6 12.7 312.7 13.7Z" fill="white" fill-opacity="0.2"/>
<path d="M264 20.2C259.9 21.3 254.8 22.4 252.8 22.7C248.2 23.3 248.8 25 253.6 25C255.7 25 257.8 25.8 259 27C260.1 28.1 261.9 29 262.9 29C264 29 266.2 29.8 267.8 30.7C270.6 32.3 271.1 32.3 276 30.7C278.9 29.8 283.5 29 286.2 29C291.2 29 295 27.7 295 26C295 25.4 294.3 25 293.4 25C292.4 25 292 24.4 292.4 23.5C293.2 21.4 290.8 21.6 286.5 24.1C282.8 26.3 281.4 26.3 274.6 23.7C272.4 22.9 271.2 22 271.9 21.6C273.1 20.8 273.4 17.9 272.3 18.1C271.8 18.2 268.1 19.1 264 20.2Z" fill="white" fill-opacity="0.2"/>
<path d="M871 19.9C869.6 20.3 868.5 21.1 868.5 21.8C868.5 24.0001 865.7 25 859.4 25C853 25 837.6 27.5 835 29C833.7 29.8 833.7 30 835.3 30.5C839 32 836.6 33 829.3 33L821.5 33.1L825 36C826.9 37.7 829.6 39 831 39C833.3 39.1 833.3 39.2 831.6 40.2C830.2 41 828.9 40.9001 826.3 39.6C823 38 815.9 37.4001 814.7 38.6C813.6 39.8 815.2 42 817.3 42C818.8 42 819.1 42.3 818.3 43.1C816.4 45 813.1 43 811 38.9001C809.9 36.7 808.2 35 807.3 35C805.9 35 806 35.4001 807.9 37.4001C809.8 39.4001 809.9 39.8 808.6 40.3C806.3 41.2 806.7 43.4001 809.3 44.5C810.5 45.1 811.6 46.5 811.8 47.7C812.3 51.2 814.5 52.4001 818.2 51.1C820.3 50.3 821.7 50.3 822.4 51C823.4 52 822.1 52.4001 819.3 52.1C817.5 51.9001 816.7 53.9001 817.9 55.4001C819.9 57.8 817.2 62 813.8 62C810.8 62 810 60.6 812.5 59.6C814.7 58.8 814.4 53.7 812 52.2C810.9 51.6 809.2 49.3 808.1 47.1C807 45 805.4 43 804.5 42.7C803.7 42.3 803 40.9001 803 39.5C803 37.7 802.5 37 801.1 37C800 37 798.4 36.3 797.6 35.4001C795.2 33 792.2 34.5 791.4 38.5C791.1 40.3 790.1 42.1 789.3 42.5C787.9 43 787.9 43.2 789.2 44.8C790 45.7 791 47.2 791.3 48.2C791.6 49.1 793.3 50.1 795 50.5C797.8 51.1 800 53.4001 798.8 54.5C798.6 54.7 795 53.8 790.9 52.4001C786.9 51 781 49.6 778 49.3C775 49 771.5 48.1 770.3 47.4001C769.1 46.6 767.4 46 766.5 46C763.7 46 765 47.7 769.1 49.3C772.8 50.7 773.1 51.2 772 52.5C770.8 54 770.5 53.9001 769.6 52.1C768.7 50.5 768.1 50.3 766.5 51.2C765.4 51.9001 763 52.7 761 53.1C759.1 53.4001 756.7 54.1 755.8 54.5C754.5 55 754 54.7 754 53.6C754 52.7 753.3 52 752.4 52C749.9 52 737.6 57.1 736.4 58.6C735.2 60.1 731.8 60.5 730.7 59.3C730.3 59 730.5 58.1 731.1 57.3C732.9 55.2 730.3 53 726 53H722.2L724.6 57.6C727.3 62.8 727.1 63.8 723.7 62.3C721.9 61.5 720.9 61.6 719.1 63.1C717.8 64.2 716.1 65 715.3 65C714.3 65 714.1 65.6 714.5 66.9001C715.1 69 713.5 70.7 712.5 69C711.7 67.7 704 67.7 704 69C704 69.5 705.1 70.2 706.5 70.6C707.9 70.9001 709 71.7 709 72.2C709 73.5 704.4 72.4001 700.5 70.1C698.8 69.1 697.5 67.6 697.5 66.4001C697.5 65.4001 696.6 64 695.5 63.3C693.6 62.1 693.6 62.1 696 62.1C697.4 62.1 701 62.5 704 62.9001C711 64 717 62 717 58.6C717 56.6 716.2 56.1 711.3 55.1C708.1 54.4001 700.6 52.5 694.7 50.9001C688.7 49.2 683.2 48.1 682.3 48.4001C681.3 48.8 681 48.5 681.5 47.1C682 45.5 681.3 45 677.3 44.2C674 43.5 672.1 43.5 671.3 44.2C670.5 44.8 668.2 45 665.7 44.7C660.9 44 649.5 46.6 638.3 50.8C631.4 53.4001 629.2 55 632.5 55C633.3 55 634 55.4001 634 56C634 57 628.9 62 627.9 62C627 62 623 68.8 623 70.2C623 72.6 619.8 75 618 74C612.9 71.3 602 79.1 602 85.6C602 87.5 602.6 89.3 603.3 89.6C604.1 89.9 604.5 91.2 604.2 92.9C603.9 95.3 604.3 95.9 607.3 97.3C611.8 99.5 611.7 99.5 616.9 96C621.9 92.6 623 92.3 623 94.5C623 95.4 624.1 97.8 625.5 99.9C628.1 103.7 628 107 625.5 107C624.8 107 623.5 107.3 622.7 107.6C621.5 108 621.3 107.6 621.7 106.2C621.9 105.1 621.7 103.9 621.1 103.6C620.6 103.2 620.3 102.3 620.7 101.5C621.6 99 617.2 99.7 614.5 102.5C611.6 105.3 611.4 107.9 613.6 112.2C615.5 116 614.7 117 608.9 117.7C602.4 118.5 599.2 120.5 598.8 123.7C598.6 126 597.5 127 593.2 129C590.4 130.4 587.7 132.3 587.4 133.3C587.1 134.3 585.4 135.7 583.7 136.4C581 137.5 580.1 137.5 577.8 136.3C574.7 134.8 574.6 134.9 575.9 138.3C576.8 140.7 576.8 140.8 573 140.3C568.6 139.7 564 140.6 564 142C564 142.5 566.1 144.1 568.8 145.4C574.8 148.4 577.4 153.2 576.4 159.6C576 162.5 575.2 164.1 574 164.5C571.4 165.3 555.7 164.8 553.7 163.8C552.5 163.2 550.8 163.3 548.9 164.2C546 165.5 545.9 165.7 546.5 170.5C546.9 174.1 546.6 177 545.1 181C543.8 184.7 543.5 187 544.1 188.2C544.6 189.1 545 191.1 545 192.5C545 195 545.2 195.1 548.9 194.5C552.5 193.9 552.9 194.1 554.7 197.2C556.5 200.3 556.6 200.7 555 204.2C554 206.6 551.3 209.4 547.9 211.9C541.8 216.3 540 219.2 540 224.9C540 228.2 539.3 229.4 535 233.4C532.3 235.9 529.2 238 528.1 238C527 238 525.5 239 524.9 240.2C524.2 241.5 522.2 244.2 520.3 246.3C518.4 248.4 517.1 250.8 517.4 251.5C517.6 252.2 516.6 254 515 255.5C513.5 257 511.9 259.7 511.6 261.5C511.2 263.3 510.3 265.3 509.5 266C507.6 267.6 507.6 272 509.4 274.6C510.4 275.9 510.5 276.9 509.8 277.7C509.2 278.5 509.2 279.5 509.9 280.9C510.5 282 511 284.1 511 285.7C510.9 289.4 507.5 299.3 506.1 299.8C504.4 300.4 504.8 302.7 506.6 303.4C507.8 303.9 508.1 304.8 507.6 307.4C506.8 311.8 508.4 315.8 511.4 316.9C514.8 318.2 520.6 325.7 522.1 330.8C523.4 335.4 524.7 336.6 537.7 345.8L544.9 350.9L549.2 349C553.9 346.9 563.9 346.3 567 348C568.5 348.8 570.6 348.3 576.4 345.5C589.7 339.2 596.8 339.9 600.4 347.8L602.1 351.7L607.4 351.2C611.3 350.9 613.4 351.2 615.4 352.5C617.7 354 618 354.9 618 360.1C618 363.5 617.2 368 616.1 370.8L614.1 375.7L619.7 384.1C626.4 394 633.5 410.7 631.9 412.6C631.2 413.5 631.4 414.9 632.5 417.5C634.6 422.7 634.4 426.5 631.4 433.5C624.8 449.1 625.1 453.9 633.4 471.5C638.5 482.4 639 484.1 639 490.3C639 496.2 639.5 498 642.8 504.3C650.7 519.7 653.4 527 651 527C649.7 527 654.2 535.7 655.9 536.5C656.6 536.8 660.2 536.3 663.7 535.4C667.3 534.5 671.5 534.1 673.2 534.4C675 534.7 677.3 534.4 679 533.5C680.6 532.7 683.2 532 684.8 532C687.8 532 692 528 704.6 513.4C711.2 505.7 711.2 505.7 711.9 499.1C712.5 493.7 712.7 493.4 717.7 490.2C722.1 487.3 723 486.2 723.5 482.9C723.9 480.7 723.6 476 722.9 472.5L721.6 466L727.6 460.5C730.8 457.5 735.5 453.9 738 452.6C745.1 448.8 745.8 447.6 746.6 437.5C747.2 429.2 747 427.6 744 417C739.8 402.2 739.7 399.2 743.7 390.7C747.2 383.3 760.6 367.2 767.6 361.9C772 358.6 782.5 342.7 787.6 331.6C791.9 322.2 791.9 311.3 787.7 314.9C787 315.4 783.7 316.3 780.5 316.9C777.2 317.4 771.9 318.7 768.8 319.8L763.1 321.7L760.5 319C759 317.4 758.2 315.7 758.5 314.8C759.2 313 750.4 302.2 743.8 296.8C740.5 294.1 739 291.9 738 288.6C737.3 286.2 735.7 283.1 734.4 281.9C732.7 280.3 732 278.6 732 276C732 273.4 730.5 269.7 727.1 263.8C724.4 259.1 720.6 251.6 718.7 247.2C715.2 239.2 715.2 239.1 717.3 238.4C719.9 237.6 724.1 242.2 730.1 252.2C732.2 255.9 734.4 259.2 734.9 259.5C735.5 259.8 736.4 262.5 737 265.5C737.9 269.9 739 271.8 742.1 274.7C744.2 276.7 746.2 279.2 746.6 280.4C747 281.6 748.8 284.2 750.6 286.3C754.5 290.5 755.5 294.7 752 291.5C750.4 290 750 290 750 291.2C750 292 750.9 293.5 752 294.5C753 295.4 754.9 299.2 756.1 302.9C757.3 306.5 758.8 309.8 759.4 310.2C760.9 311.3 766.3 310.1 767.6 308.4C768.2 307.6 770.1 307 771.9 307C774.7 307 776.7 306.3 781 303.8C781.8 303.3 785.3 301.6 788.6 299.9C792 298.3 795 296.1 795.2 295.2C795.5 294.1 797.8 292.8 801.3 291.7C805 290.5 807.1 289.3 807.5 288C807.9 286.9 808.7 286 809.5 286C811.7 286 817 280 817 277.5C817 276 817.7 275 819.1 274.7C820.3 274.4 820.9 273.7 820.5 273.1C820.2 272.5 820.8 270.7 821.9 269.1C823.1 267.5 824 265.7 824 265.1C824 263.3 817.7 258.1 815.5 258C811.8 257.9 809 254.3 809 249.6C809 246.1 808.1 246.3 803.5 251C799.7 254.9 793.1 257.8 791 256.5C790.4 256.2 790 254.9 790 253.7C790 252.4 789.3 250.4 788.3 249.1C786.8 246.9 786.6 246.8 785.4 248.4C784.3 250 784.1 249.9 782.6 247.8C781.7 246.6 781 245 781 244.3C781 243.6 779.4 241.3 777.5 239.1C773.5 234.8 772.9 230.7 775.9 229C779.8 226.9 781.6 227.8 785.1 233.6C787.8 238.1 789.7 240 794.4 242.5C800.4 245.8 802.6 245.9 806.4 243.4C808.4 242 812.6 243.3 811.5 245C809.5 248.3 820.2 250.9 838.5 251.6L850.5 252.1L854.5 255.9C856.7 258.1 860.1 260.6 862 261.6C863.9 262.5 864.9 263.5 864.3 263.7C862.1 264.5 862.9 266.7 866.5 269.9C869.6 272.6 870.3 272.8 872.5 271.8C873.9 271.2 875 269.9 875 268.9C875 267.9 875.4 266.9 875.9 266.5C876.9 266 877.3 267.8 878.5 277C879.3 283.8 883.2 294.9 889.9 310.4C893.3 318 896.4 325.9 897 328.1C898.5 333.5 901.5 334.3 905 330C907.3 327.2 907.9 326.9 909.6 328C911.1 328.9 911.5 330.4 911.6 334.8C911.7 338.9 912.2 340.7 913.6 341.7C915.1 342.8 915.6 342.7 917.1 341.4C918.1 340.5 919.3 338.5 919.9 337C920.7 334.5 920.4 333.5 918 330.2C914.5 325.4 913 324.3 912 326C911.1 327.5 909 326.5 909 324.5C909 323.8 909.6 323 910.4 322.7C911.5 322.3 911.7 319.4 911.6 309.4L911.5 296.7L914.2 295.8C915.7 295.3 917.2 294.1 917.5 293.1C917.8 292.1 920.5 289.3 923.4 286.7C926.4 284.1 929.2 281.1 929.5 280C929.9 278.9 931.5 277.3 933.1 276.5C935.1 275.4 936 274.2 936 272.6C936 269.2 937.7 268.3 944.5 268.2C949.2 268.2 950.8 267.7 952.1 266.1C954 263.8 955.2 264.6 956.5 269C957.7 273.2 961.9 278 963.6 277.3C964.9 276.8 965.1 277.1 964.5 278.9C964 280.6 964.5 281.6 966.4 283.1C968.6 284.9 969 285.9 969 290.6C969 295.5 969.2 296 971.6 296.6C973.3 297.1 974.8 296.7 976.3 295.3C982.1 290.3 981.6 290 984.9 300.7C988.8 313.4 990.1 319.2 989.2 320.5C988.8 321 988.5 324.4 988.5 328C988.5 333.6 988.7 334.5 990.2 334.2C992.9 333.8 1000 345.5 999.3 349.2C998.6 352.8 1002.7 359 1007.6 361.6C1009.5 362.7 1011.8 364.5 1012.6 365.7C1016.1 371.1 1017.3 366.4 1014 360C1012.9 357.8 1012 354.5 1012 352.6C1012 348.7 1006.6 341.5 1000.6 337.4C998.2 335.7 997 334.2 997 332.5C997 331.2 995.8 328.8 994.4 327.1L991.8 324L993.6 316.8C994.5 312.8 995.4 308.9 995.6 308.2C996.3 305.8 998.5 307.6 998.3 310.4C998.1 312.7 998.4 313 1000.2 312.5C1001.7 312 1003.3 312.9 1006.6 316.2C1009 318.5 1011 321 1011 321.7C1011 322.3 1012 323 1013.3 323.2C1014.7 323.4 1015.6 324.2 1015.6 325.5C1015.7 326.6 1015.8 328.3 1015.9 329.3C1016 330.9 1016.6 330.7 1020 328C1022.2 326.3 1024 324.2 1024 323.4C1024 322.7 1025.1 321.8 1026.4 321.4C1027.7 321.1 1030 319.5 1031.5 318C1034 315.3 1034.2 314.6 1033.7 309.7C1033 302.4 1031.3 299.5 1022.5 290.1C1017.4 284.6 1015 281.3 1015 279.6C1015 275.9 1022.6 269 1026.7 269C1029.4 269 1029.9 269.4 1030.2 271.7C1030.6 275.3 1034 276.2 1034 272.8C1034 270.3 1038.1 267.7 1040.6 268.7C1041.4 269 1042.8 268.6 1043.8 267.9C1045.3 266.6 1048.9 264.8 1054.5 262.4C1059.2 260.4 1065.8 251.6 1068.4 244C1071.5 234.8 1072.9 224.9 1070.9 226.7C1069.1 228.5 1066.6 228.3 1067.4 226.5C1067.7 225.7 1068.3 224.3 1068.6 223.5C1069 222.5 1068.6 222 1067.5 222C1066.4 222 1066 221.5 1066.4 220.5C1067.1 218.6 1059.1 209.2 1054.1 205.9L1051.7 204.4L1054.9 199.7C1056.9 196.8 1058.8 195 1060 195C1061.1 195 1062 194.4 1062 193.6C1062 191.6 1054.3 191.1 1050.9 192.9C1048.5 194.1 1048.1 194 1045.7 191.6C1044.3 190.2 1042.4 189 1041.5 189C1039 189 1039.8 187.4 1045 182C1049.8 177 1052.7 176.2 1051.7 180.1C1051.2 182.1 1053 187 1054.2 187C1054.6 187 1055.4 186.2 1055.9 185.1C1057.2 182.7 1061.1 181.7 1064.4 183C1066.5 183.8 1067 184.6 1067 187.4C1067 190.7 1067.2 190.8 1072 192C1076.4 193 1077 193.5 1076.4 195.2C1076 196.5 1076.4 197.6 1077.6 198.4C1078.7 199.2 1079.3 201 1079.3 203.1C1079.3 208.3 1080.5 209.2 1084.8 207.4C1086.8 206.6 1089.2 205.2 1090.1 204.4C1091.7 202.9 1091.7 202.5 1089.7 197.8C1088.1 193.9 1086.5 192 1081.9 188.9C1078.7 186.8 1075.9 184.6 1075.6 184.2C1075.3 183.7 1076.2 182.2 1077.5 181C1079.3 179.3 1080 177.6 1080 174.8C1080 170.6 1083.1 166.4 1085.6 167.4C1086.4 167.7 1087.6 168.3 1088.4 168.6C1090.8 169.5 1094.8 164.8 1096.4 158.8C1097.3 155.7 1098 150.1 1098 146.3C1098 140 1097.6 138.6 1093.7 131.4C1087.3 119.6 1086.9 119.1 1082.1 116.9C1076.9 114.6 1074.4 114.5 1073.6 116.5C1072.7 118.9 1071.6 118.3 1069.1 114.2C1066.9 110.6 1066.9 110.6 1067.5 113.5C1068.1 116.3 1068.1 116.4 1066.2 114.7C1065.2 113.8 1063.6 113 1062.7 113C1060.1 113 1059.7 111.2 1061.8 108.5C1062.9 107.1 1064.1 104.3 1064.4 102.3C1065.8 94.6 1066.7 93.3 1071.7 92.6C1079.7 91.5 1097 91.9 1097 93.1C1097 93.9 1098.7 94.1 1102.6 93.7C1108.1 93.1 1110.6 92.1 1108.4 91.3C1104.7 90 1104 88.6 1105.2 84.7C1106.2 81.3 1106.7 81 1109.9 81C1112.5 81 1114.3 81.8 1116.7 84.2L1120 87.4L1122.4 85.1C1124.4 83.2 1124.7 82.5 1123.7 80.9C1122.5 78.9 1123.2 77.4 1124.9 78.5C1125.5 78.8 1126.7 80.4 1127.5 82C1128.8 84.5 1128.8 85.3 1127.5 89C1126.7 91.4 1126 94.1 1126 95.1C1126 96.1 1125.2 97.5 1124.2 98.1C1122.5 99.2 1122.4 99.6 1123.7 103.4C1124.6 105.8 1126.8 108.8 1129.3 111C1131.6 112.9 1137.2 118 1141.8 122.3C1146.4 126.6 1150.5 129.8 1151.1 129.5C1152.4 128.6 1152.2 123.3 1150.8 122.4C1150 121.9 1150.3 121.3 1151.5 120.4C1153.2 119.1 1153.2 118.9 1151.6 117.1C1150.1 115.5 1150.1 115 1151.3 113.8C1152.5 112.6 1152.5 112.1 1150.9 110.1C1148.9 107.7 1148.3 105.5 1149.9 106.5C1150.4 106.8 1151.1 106.6 1151.4 106.2C1151.7 105.7 1150.4 104.6 1148.5 103.7C1146.6 102.8 1145 101.4 1145 100.5C1145 99.7 1143.8 98.8 1142.3 98.4C1137.4 97.4 1136.9 97 1137.2 95.2C1137.4 94.1 1136.9 92.6 1136.2 91.8C1135.2 90.5 1135.4 90.1 1138.1 89C1140.6 87.9 1141.6 87.9 1143.2 88.9C1144.8 89.9 1145.5 89.8 1147.1 88.4C1148.8 86.9 1149.4 86.9 1152.7 88.1L1156.4 89.5L1158.5 85.5C1161.4 80.1 1166.8 77.1 1171 78.7C1176.1 80.6 1175.5 78.1 1170.3 76C1167.7 74.9001 1164.1 73.2 1162.3 72.3C1159.2 70.7 1159.2 70.6 1161.1 69.2C1162.3 68.4001 1162.9 67.2 1162.6 66.3C1162.1 65 1162.8 64.9001 1167.2 65.5C1170.1 65.9001 1173.9 67.1 1175.7 68.1C1179.4 70.4001 1189 71.9001 1189 70.2C1189 69.6 1188.2 68.6 1187.3 68.1C1185.7 67.2 1185.7 66.9001 1187 66C1189.5 64.3 1186 62.5 1177.8 61.1C1173.8 60.5 1162 57.7 1151.5 55C1141.1 52.3 1126.9 49.4001 1120 48.5C1113.1 47.6 1106.7 46.7 1105.6 46.5C1104.1 46.2 1104.3 46.7 1106.6 49.1L1109.5 52.2L1107 51.6C1096.8 49.5 1092.6 49 1083.1 49C1073.8 49 1072.1 48.7 1070.6 47.1C1068.3 44.6 1066 44.2 1048.5 43.1C1039.9 42.5 1032 41.5 1030 40.7C1026.1 39.1 999.3 36.4001 998.2 37.5C997.8 37.8 998.6 39 1000 40.1L1002.5 42.2L993.2 41.5C988.1 41.2 983.3 40.7 982.5 40.4001C981.4 39.9001 981 40.5 981 42.4001C981 43.8 980.8 45 980.6 45C979 45 970 40.3 968 38.4001C965.5 36.1 954.2 33 948.3 33C946.2 33 945.9 33.2 947 34.5C948.1 35.8 947.3 36 941.2 36C937.3 36 933.8 35.5 933.5 35C933.2 34.4001 929.7 34 925.8 34C920.4 34 918.2 33.5 916 32C913.2 30 911 30.1 908 32.5C906.5 33.7 900 35.4001 900 34.5C900 34.3 902.3 32.9001 905 31.4001C909.9 28.7 910.7 27.6 909.2 25.5C908 23.8 899.3 22.0001 892.1 22.0001C886.9 22.0001 885.1 21.6 884.6 20.5001C884 18.9 875.9 18.5001 871 19.9ZM668 66.3C668 66.9001 665.3 69.3 662 71.5L656.1 75.5L656.2 81.2C656.3 89.8 657.6 90.7 668.7 89C681.5 87.1 684.6 87.4 682.1 90.4C681.3 91.4 679 91.8 674.7 91.8C671.3 91.7 667.4 92.2 666.1 93L663.6 94.3L665.9 96.1C667.6 97.5 668.1 98.6 667.6 100.5C666.9 103.4 665.8 103.7 664 101.5C663.3 100.7 662 100 661 100C658 100 656.7 102.6 657.4 107C658 110.8 657.9 111 654.1 113C650.2 114.9 650.1 114.9 648.8 113.1C647.5 111.2 647.3 111.3 642 113.6C635.5 116.4 633.4 116.5 632.2 114.4C631.4 112.9 631 112.9 628.1 114.5C624.2 116.5 623.2 116 626 113.5C627.1 112.5 628 111.1 628 110.4C628 108.9 633.5 109.5 635.8 111.3C636.6 111.9 637 111.9 637 111.2C637 110.6 636.5 109.8 636 109.5C634.4 108.5 635.9 107 638.6 107C641.3 107 643.2 103.6 642.4 100.4C641.9 98.1 642.6 97 646.8 94.1C648.5 92.9 650 91.6 650 91.2C650 90.8 648.6 89.7 647 88.8C641 85.4 644.4 76.9 653.3 73.2C654.8 72.6 656 71.5 656 70.7C656 70 656.7 68.4001 657.6 67.2C658.8 65.5 660.1 65 663.6 65C666.5 65 668 65.4001 668 66.3ZM723.9 151.5C722.7 153.4 721.4 155 720.9 155C718.5 155 720.6 157.1 725.8 160C731.8 163.4 740 170.6 740 172.6C740 173.2 739.2 174.4 738.3 175.2C735.9 177.3 724 176.1 718.4 173.2C714.5 171.2 714 171.2 708 172.6C704.5 173.4 701.1 174.5 700.4 175.1C698.8 176.4 693.6 175.4 689.8 173.2C687.5 171.9 687.2 171.2 687.7 168.6C688 166.9 688.7 165.3 689.1 165C689.5 164.7 690.1 163.3 690.5 161.8C690.9 160.3 691.8 158.9 692.6 158.6C693.4 158.3 694 157.5 694 156.7C694 156 695 154.4 696.3 153.2C698.1 151.5 699.3 151.2 702.3 151.7C706 152.3 706.9 153.3 705 154.5C704.3 154.9 705 156.2 706.6 157.7C708.7 159.7 709.7 160 711.4 159.2C712.6 158.7 714.6 157.8 716 157.2C717.7 156.5 717.9 156.1 716.8 156.1C712.4 155.9 714.3 150.6 719.3 149.1C725.6 147.3 726.2 147.6 723.9 151.5ZM776.4 149.5C780 151 780.9 153.1 779.1 155.9C778.6 156.6 777.8 157 777.2 156.6C775.7 155.7 773 157 773 158.5C773 159.2 772.5 160 771.9 160.2C771.3 160.4 773.3 162.8 776.4 165.5C780.2 168.8 782 171.1 782 172.7C782 175.4 782.8 175.6 784.6 173.2C785.9 171.6 786.1 171.6 788 173.9C790.7 177.1 790.5 178 787.1 178C782.7 178 782.5 179.6 786.3 183.2C789 185.8 789.9 187.6 790.3 191.2L790.9 195.8L786.1 196.5C781.3 197.1 777 196 777 194C777 193.5 775.8 193 774.4 192.8C770.6 192.4 769.1 189.6 771.3 187.2C772.2 186.2 773 184.4 773 183.3C773 182.1 773.6 181 774.3 180.7C775 180.5 772.7 177.7 768.8 174.1C763.4 169.1 762 167.2 762 164.9C762 163 761.5 162 760.5 162C759.7 162 759 161.2 759 160.3C759 158.4 762.8 154 764.4 154C765 153.9 767.1 152.6 769 151C770.9 149.3 772.5 148 772.6 148C772.7 148 774.4 148.7 776.4 149.5ZM640.4 164.4C642.1 165.7 646.3 168.4 649.8 170.5C655.5 173.8 656 174.4 656 177.6C656 182.2 658.3 186.6 661.7 188.2C663.4 189 664.7 190.7 665.2 192.7C665.7 194.5 666.5 196 666.9 196C667.4 196 668.5 196.3 669.4 196.6C670.5 197 671 196.7 671 195.6C671 194.8 672.1 193.3 673.5 192.4C676.7 190.3 676.6 189.7 673 186C671.4 184.3 670 182.3 670 181.5C670 179.7 671.2 179.6 672.8 181.2C673.6 182 674.4 181.8 675.8 180C678.7 176.4 681.3 178 683.3 184.8C686.1 193.7 687.3 196 689.4 196C690.4 196 693 197 695.2 198.2C698.9 200.3 699.2 200.3 700.1 198.7C701.3 196.6 704 196.5 706.6 198.5C707.6 199.3 709.4 199.9 710.5 199.9C711.6 199.9 713.4 199.3 714.4 198.5C715.5 197.7 717.6 197 719.1 197C721.3 197 721.8 197.5 722.3 200.5C723.2 206.2 718.2 219.7 714.3 221.8C713.4 222.4 710 222.5 706.8 222.2C703.3 221.9 699.4 222.2 697.1 223C693.5 224.1 692.6 223.9 680.5 219.1C668.9 214.5 667.2 214.1 664.3 215.1C659.7 216.6 656.7 220.6 658.1 223.2C659.8 226.4 655.5 228.5 653.1 225.6C652.5 224.9 649.9 224 647.3 223.7C644.4 223.4 642.1 222.5 641.1 221.3C638.3 217.8 633.3 215 629.8 215C627.7 214.9 625.4 213.9 623.2 212.1C620 209.4 620 209.3 621.4 205.9C623.2 201.6 621.7 195.5 618.5 194.5C615.8 193.6 609.4 193.9 604.5 195.2C602.3 195.7 596.3 196.6 591.2 197.1C581.4 198 579.1 198.8 575 202.5C572.7 204.6 571.8 204.8 565.7 204.3C559.5 203.8 558.9 203.5 559.2 201.6C559.5 199.3 562.6 197.5 568.7 196C573.2 194.9 581.6 187.8 580.5 186C579.3 184 584.4 176.8 588.5 174.8C593.1 172.4 594.2 171.2 593.4 168.8C592.6 166.2 597.5 164.5 601.9 165.9C605 166.8 605.8 166.6 609.7 164C615.6 160 617.5 160.1 619.9 164.9C622.3 169.5 626.7 173.4 632.7 176.2C636.7 178.1 642 183.1 642 184.9C642 185.4 641.1 186.9 639.9 188.3C638.1 190.6 637.4 190.9 633.6 190.4C626.9 189.4 626.9 191.6 633.6 194.5C636.7 195.9 639.4 197 639.6 197C639.8 197 640 195.6 640 194C640 191.8 640.5 191 641.8 191C642.8 191 644.4 189.7 645.3 188C646.7 185.6 646.9 184.6 646 182.9C644.3 179.9 646.1 178.3 649.5 179.8C651.6 180.8 652 180.7 652 179.4C652 178.6 649.9 177 647.3 175.9C644.6 174.8 642.1 173.2 641.7 172.4C641.3 171.6 640 171 639 171C636.9 171 628 160.5 628 158.1C628 157.3 628.7 155.8 629.6 154.9C631.2 153.1 631.4 153.3 634.3 157.6C635.9 160.1 638.7 163.1 640.4 164.4Z" fill="white" fill-opacity="0.2"/>
<path d="M235.4 30.8C234.8 31.2 234.1 32.2 233.8 33.1C233.4 34 230.2 35.8 226.7 37.1L220.1 39.5L222 42C223.7 44.3 224 44.3 229 43.2C231.9 42.5 235.3 41.1 236.7 40C240.8 36.8 241.2 37.7 238 43.5C236.3 46.6 235 49.3 235 49.6C235 49.9 236.4 50.6 238 51.1C239.7 51.7 241 52.8 241 53.6C241 55.4 243.3 55.4 246.8 53.6C252 51 265.9 50.1 272.6 51.9C275 52.6 276.4 52.3 278.9 50.8C282.5 48.5 282.5 48.6 280.4 45.6C279.4 44 279.2 43 279.9 42.5C280.5 42.2 281 40.1 281 37.8C281 34 280.9 33.8 278.4 34.4C277 34.8 274.8 36.3 273.5 37.8C271.3 40.3 271.1 40.4 269.3 38.8C268.3 37.9 265.2 36.8 262.4 36.5C258.2 35.9 257 35.3 255.6 32.9C253.9 30.1 253.7 30 245.2 30C240.4 30 236 30.4 235.4 30.8Z" fill="white" fill-opacity="0.2"/>
<path d="M297.7 32.7C297.3 33 297 34.2 297 35.2C297 37.2 295.9 37.5 294.3 35.9C293.7 35.3 292.7 35.1 292.1 35.5C291.4 35.9 292.1 37.2 294 39.1C297.2 42.4 298.3 42.4 305.1 38.9C307.5 37.7 308.9 36.2 309.2 34.5C309.7 32.1 309.6 32 304 32C300.9 32 298 32.3 297.7 32.7Z" fill="white" fill-opacity="0.2"/>
<path d="M313.6 35C312.3 36.7 308.3 39.9 304.9 42.1C301.5 44.4 298.5 47.1 298.2 48.2C297.8 49.8 297.1 50.1 294.5 49.6C290.2 48.8 284 51.4 284 54C284 55.8 283.3 56 277.8 56.1C268.4 56.3 266.7 56 264.4 53.9C262.5 52.1 261.9 52 257.6 53.2C255.1 53.9 253 55 253 55.7C253 56.7 250.5 57 242.8 56.9C234.6 56.9 233 56.6 234.8 55.8C239.1 53.7 238.3 53.2 223.9 50C220.7 49.3 217 49 215.6 49.4C213.7 49.9 213 49.7 213 48.5C213 47.3 212.5 47.2 210.3 48.1C208.1 48.9 207.3 48.8 206.3 47.4C205.5 46.3 204.5 46 203.3 46.5C199.1 48.2 186.3 50.5 184 50C182.6 49.7 179.9 50 178 50.7C173.2 52.4 169.4 52.3 166.4 50.4C164.8 49.3 160.3 48.5 153.2 47.9C139.4 46.9 126.8 44.7 124.5 43C123.2 42 109 45 97 48.8C91.8 50.5 85.9 52.1 84 52.5C77.5 53.7 76.9 54.1 77.5 56.1C77.8 57.1 78.3 58.9 78.6 60C79 61.7 78.7 62 76.1 62C74.4 62 73 61.6 73 61.1C73 60.6 69.3 61.1 64.8 62.4C58.5 64.1 56.5 65.1 55.9 66.8C55.2 68.6 55.5 69.1 57.5 69.6C58.9 69.9 61.8 70 64 69.8C67.1 69.5 67.9 69.8 67.5 70.8C67.2 71.6 67 72.5 67 73C67 73.4 64.9 74 62.3 74.3C49.5 75.6 39.3 79.9 35.7 85.4C33 89.5 33.5 91.1 37.1 90.3L40.2 89.7L38.5 92.4C36.9 94.7 36.9 95 38.4 94.4C40.4 93.6 47 94.8 47 95.9C47 96.7 8.00001 112 5.80001 112C5.10001 112.1 3.40001 112.7 2.00001 113.5C-0.499988 114.9 -0.499988 114.9 3.00001 114.4C14.9 112.5 35.3 106.6 42.4 103C46.7 100.8 51.3 99 52.5 99C56 99 64 96.3 66.1 94.4C67.5 93.1 67.7 92.4 66.9 91.3C66 90.3 66.3 90 68.4 90C69.8 90 73.3 89.1 76.2 88C79 86.9 81.5 86.2 81.7 86.4C81.9 86.6 80.2 87.9 78 89.4C75.8 90.8 74 92.2 74 92.4C74 93.1 86.8 90 91.6 88.2C96.4 86.3 96.7 86.3 100 88C101.9 89 105.8 90.1 108.7 90.5C116.1 91.5 117.4 93.8 116.7 104.2L116.2 112H119.6C122.8 112 122.9 112.1 121.9 114.7C121.2 116.4 121.1 120.2 121.5 124.4L122.1 131.3L119.6 130.6C115.7 129.6 115.8 132.9 119.8 137.2C122.5 140 123.1 141.2 122.2 142.2C121.7 142.9 120.2 146 119 149C117.8 152 114.4 157.2 111.5 160.6C108.5 163.9 105.8 168 105.4 169.6C105 171.2 103.6 174.1 102.1 176C99.1 180.1 98.9 182.8 100.3 196.3L101.4 206.2L105.6 209.1C110.5 212.4 110.7 212.9 111.6 223C112 227.1 112.9 231.8 113.7 233.3C115 235.9 115 236.3 113.4 237.4C111.9 238.6 111.9 239 113.1 240.7C113.9 241.8 115.9 243.9 117.6 245.3C120 247.3 120.6 248.6 120.3 250.4C119.9 252.2 120.7 254 122.9 256.7C124.6 258.8 126 261 126 261.7C126 262.4 126.5 263 127 263C129.1 263 129.2 259.7 127.3 255.6C126.2 253.4 125 250.1 124.6 248.3C124.2 246.6 122.4 241.3 120.5 236.6C118 230.2 117.3 227.1 117.7 224.5C118 222.6 118.4 221 118.6 221C118.7 221 120 221.4 121.3 221.9C123.3 222.7 123.8 223.7 124.3 228.1C124.8 231.7 126 235 128.5 238.7C130.6 241.8 132 245.2 132 247C132 249.3 133.5 251.8 138 257.1C142.9 262.8 144 264.7 144 267.6C144 269.5 143.6 271.9 143.1 272.8C142.6 273.7 142.6 275.4 143 276.6C144 279.1 153 286 155.3 286C156.2 286 157.3 286.6 157.7 287.4C158.9 289.4 172.7 296.1 175.8 296.2C177.3 296.2 180.2 295.9 182.3 295.5C185.9 294.8 186.3 294.9 190.9 299.7C195.6 304.6 196.7 305.1 208.8 308.3C211.8 309.1 213.2 310.1 213.6 311.7C213.9 312.9 215 314.6 216.1 315.6C217.1 316.5 218 318.4 218 319.7C218 322.8 228.2 332.4 231.8 332.7C233.2 332.8 235.3 333.9 236.6 335.1C239.3 337.7 242.5 337 241.7 334C241.1 331.7 244.3 328.5 246.5 329.4C247.3 329.7 248.3 330.8 248.6 331.7C248.9 332.7 249.8 334.7 250.6 336.2C252.3 339.4 252.5 353.2 250.8 356.3C250.2 357.5 248.9 359.1 247.8 359.8C246.8 360.5 246 362 246 363.1C246 364.2 245 365.5 243.8 366.1C240.6 367.5 236.6 377.9 237.9 381.3C238.4 382.7 239.4 384.1 239.9 384.5C240.6 384.9 240.1 386.3 238.4 388.5C236 391.6 236 392.1 237.1 396.2C237.8 398.6 239.6 401.8 241.1 403.5C242.6 405.1 245 409 246.5 412C248 415 250.5 419.3 252 421.5C253.5 423.7 256.8 429.6 259.3 434.7C263.9 443.8 264 443.9 274.7 451.5C280.6 455.8 285.7 459.4 285.8 459.6C286 459.7 287 464.7 288.1 470.7C289.3 478.1 289.9 486.5 290 497.3C290 508.9 290.4 514.6 291.7 519.1C293.1 524.3 293.2 526.8 292.3 537.8C291.4 549.1 291.5 550.9 293 554C294 555.9 295 560 295.3 563C296.2 570.9 297.8 576 299.6 576C300.6 576 300.9 575.3 300.4 573.5C300 572.1 300.2 571 300.8 571C301.4 571 302.3 573.3 302.9 576C304.3 582.4 304.3 582.3 302.6 581.7C300.5 580.9 298.4 583.6 299.8 585.3C300.5 586.1 300.7 588.2 300.3 590.3C299.9 593.2 300.1 594 301.2 594C303.7 594 305.3 596.6 304.1 598.8C303.3 600.4 304.1 602.2 308.6 608.8C311.7 613.3 317 619.5 320.4 622.8C326.3 628.2 327.2 628.8 336.5 631.2L346.3 633.7L349.7 631.8C351.5 630.7 353 629.5 353 629.1C353 628.7 350.5 627.6 347.6 626.6C343.4 625.4 341.1 623.8 337.9 620.2C332.7 614.3 331.8 612 333.6 609.9C334.4 609 334.8 607.6 334.4 606.7C334.1 605.8 334.8 603.4 336.1 601.3C337.6 598.9 338 597.5 337.2 597.2C336.6 597 335 596 333.6 594.9C330.6 592.5 329.9 586.4 332.5 585.4C333.5 585 334 583.4 334 581C334 578.9 334.7 576.7 335.5 576C337.6 574.3 337.4 573 335.1 573C333.1 573 330 569.5 330 567.3C330 566.5 331.3 566.1 333.5 566.2C337.8 566.4 340.3 564.4 339.6 561.4C338.6 557.7 339.9 556 343.5 556C349.9 556 353 554.8 354.5 551.9C356.7 547.7 356.4 542.3 354 541C352.9 540.4 351.7 538.8 351.4 537.5C351.1 536.1 350.1 535 349.2 535C348 535 347.9 534.7 348.8 533.8C349.7 532.9 350.4 533.1 351.9 534.4C353 535.4 355.7 536.4 358 536.7C361.3 537.2 362.5 536.9 364.5 535C367 532.6 372 521.4 372 518C372 516.7 372.7 516 373.9 516C377.5 516 380.5 509.4 380.7 501C380.8 496.9 380.9 493.2 380.9 492.9C381.1 491.5 395.2 482.9 399.9 481.3C407.9 478.8 411.2 473.7 413.5 460.6C414.5 455 415.4 447.1 415.5 442.9C415.7 435.6 415.9 435 420.2 428.9C422.7 425.4 426.4 419 428.3 414.7L431.9 406.9L430.2 402.3C428.9 398.8 427.8 397.4 425.4 396.6C423.7 396 419.6 393.1 416.2 390.1L410.1 384.6L401.8 384.4C397.2 384.2 392.7 384 391.8 384C390.7 383.9 390 383.1 390 381.7C389.9 380 388.6 378.9 383.8 376.7C378.3 374.2 377.5 374.1 376 375.5C373.7 377.6 373 377.4 373 374.7C373 373.3 371.9 371.9 370 370.8C367.5 369.4 367.1 368.6 367.6 366.6C368 364.9 367.6 363.8 366.2 362.8C365.1 362.1 363.9 359.7 363.5 357.5C362.5 352.3 362.3 351.9 357.2 347.6C353.4 344.5 352.1 344 347.7 344C341.2 344 332.5 339.7 331.1 336C330.6 334.5 328.6 332.7 326.3 331.5C324.1 330.4 321.9 328.7 321.4 327.5C320.9 326.4 319.3 324.9 317.8 324.2C314.8 322.8 314.3 321.5 316.3 320.6C316.9 320.3 315.3 320.3 312.5 320.6C309.8 320.9 307.2 321.6 306.9 322.1C306.6 322.7 304.8 322.4 302.7 321.5C300.7 320.7 297.5 320 295.5 320C291.3 320 286.5 317.8 285.6 315.4C285.1 314 284.4 314.4 281.5 317.6C279.6 319.7 278.1 322.6 278 323.9C278 325.9 277.8 326.1 276.5 325C275.4 324.1 275.2 323.4 276 322.6C276.5 322.1 277 320.4 277 318.8C277 317.3 277.7 315.7 278.5 315.3C279.3 314.8 279.6 313.9 279.2 313.3C278.6 312.4 277.2 312.9 274 315C271.6 316.6 268.2 318.2 266.5 318.6C263.2 319.3 261.1 321.5 261 324.2C261 325.2 259.7 327.4 258.2 329.2L255.3 332.3L251.7 329.4C248.8 327.2 247.2 326.6 244.3 326.9C242.2 327 239.7 327.6 238.6 328.2C234.5 330.4 228 323.4 228 316.9C228 315 228.7 310.4 229.7 306.6L231.3 299.8L228.9 297.9C227 296.4 224.7 296 217.8 296H209.1L211.7 289.7C213.1 286.3 215.1 281 216.2 278C217.4 275 218.7 272 219.1 271.4C219.7 270.6 218.6 270.1 215.4 269.6C209.1 268.8 205.6 270.7 203.8 276.2C202.4 280.4 202.2 280.5 195.1 282.4C186.7 284.6 184.4 283.9 180.7 278.1C176.3 271.1 176 267.5 179.2 258.1C180.7 253.4 182 248 182 245.9C182 242.4 182.4 242 191.3 236.1C198.9 231.1 201.3 230 204.7 230C207 230 209.2 230.4 209.5 231C210.6 232.7 214.3 232.1 216.7 229.8C219.7 227 231.7 226.2 232.7 228.7C233.1 229.8 234.2 230 236.5 229.6C239 229.1 240.1 229.5 242 231.5C244 233.7 244.3 234.5 243.4 236.8C242.2 239.8 243.2 244.9 245.7 248.6C249.7 254.8 252.5 248.1 251.5 234.6L250.9 225.5L255.7 220.3C258.3 217.4 263.7 213.1 267.5 210.6C271.4 208.1 276.2 204.4 278.3 202.3C281.5 199.1 282 198 281.6 195.2C281.3 192.9 281.5 192 282.6 192C283.4 192 284.8 190.5 285.7 188.6C286.6 186.7 287.8 185.4 288.5 185.6C289.2 185.9 291.1 184.4 292.8 182.3C295 179.4 297.3 178 301.3 176.7C304.2 175.8 307.4 175 308.2 175C310.3 175 312.4 172.4 311.1 171.5C309.5 170.6 314 164.2 317 163.1C318.4 162.6 323.3 160.8 328 159.1C336.3 156.1 336.4 156.1 333.6 158.4C329.7 161.6 330.6 164.3 335 163C336.8 162.5 338.7 161.6 339.4 161.1C340 160.6 342.6 159.6 345.2 159C347.8 158.3 350.6 156.9 351.6 155.9C352.5 154.9 354.1 154 355.2 154C356.5 154 357 153.3 357 151.5C357 150 356.4 149 355.6 149C354.8 149 353.3 150.1 352.2 151.5C349.5 154.9 343.7 155 341.5 151.7C340.1 149.5 340.2 149 342.6 144.6C344.8 140.6 345 139.6 343.9 138.9C341.6 137.4 339.3 137.9 332.2 141L325.5 144L329 141C330.9 139.3 333.1 138 333.9 138C334.7 138 336.2 137.2 337.3 136.2C338.8 134.8 341.8 134.4 352.4 133.9C364.6 133.4 365.9 133.1 371.8 130.2C375.2 128.4 378 127.3 378 127.8C378 128.2 374.6 131.9 370.5 136C366.4 140.1 363 143.8 363 144.2C363 144.7 365.9 145 369.4 145C373 145 376.2 145.5 376.5 146.1C376.9 146.7 377.8 146.9 378.6 146.6C379.3 146.3 380.4 146.8 380.9 147.7C381.7 149.2 382 149.2 384.4 147.7C386.5 146.3 386.8 145.6 386 143.6C385.5 142.3 385.4 140.3 385.7 139.1C386.1 137.3 385.8 137 383.4 137C379.8 137 377.3 132.8 379.6 130.9C380.4 130.3 380.7 129.4 380.4 128.9C380.1 128.4 380.8 126.7 381.9 125.1C383.9 122.4 383.9 122 382.4 117.6C381.5 115 379.9 112.5 378.6 111.9C377.5 111.3 375.3 109.6 373.8 108.2C371.7 106.3 371.3 105.3 372.1 103.9C373.1 101.9 371.3 88 369.9 88C369.5 88 367.9 89.1 366.3 90.4C364.8 91.7 361.6 93.7 359.4 94.8C355.3 96.9 355.2 96.9 353.2 95C350.9 92.9 351.2 89.3 353.8 87.3C355.1 86.2 354.9 85.9 352.7 85.1C351.2 84.5 348.7 82.6 347.1 80.8C345 78.5 343.8 77.8 343.1 78.6C342.4 79.2 339.8 79.4 336.4 79C330.9 78.4 330.8 78.4 328.4 81.9C327.1 83.9 326 86.2 326 87C326 87.9 324.2 90.4 322 92.5C318.7 95.7 318.3 96.6 319.5 97.3C321.3 98.3 321.4 100 319.9 103.3C318.7 105.9 309.8 111.6 306 112.2C303.9 112.5 303.3 113.3 302.1 118.6C300.9 123.9 300.3 124.9 297 126.8L293.2 128.9L292.6 126.6C292.3 125.3 291.7 123.5 291.4 122.6C291 121.4 291.2 121.1 292.3 121.6C293.1 121.9 294.1 121.7 294.5 121.1C294.8 120.5 294.4 120 293.6 120C291.5 120 291.6 118.2 294 114.2L296 111H292.7C291 110.9 287.7 110.1 285.5 109C283.3 107.9 280.9 107.1 280.3 107C279.6 107 279 106.6 279 106C279 104.3 274 101.7 270.9 101.8C268.2 101.9 268 101.6 268 97.9C268 94.9 267.6 94 266.3 94C262.6 94 271.8 86.7 282.1 81.5C287.9 78.6 293.2 75.5 293.9 74.6C294.7 73.7 296.1 73 297 73C299.6 73 308 69.3 311.7 66.4C313.4 65.1 315.2 64 315.6 64C316.9 64 309.7 71.1 307.5 72C305.9 72.7 305.8 72.9 307.2 72.9C308.1 73 309 73.7 309.2 74.5C309.5 75.8 310.1 75.7 313.4 73.9C316.6 72.2 317.8 72 319.7 72.9C323 74.4 326 74.3 326 72.6C326 71.9 324 69.6 321.5 67.6C316.5 63.5 315.6 61.4 319.5 63.2C321.4 64.1 322.3 64.1 323.2 63.2C323.9 62.5 325.3 62 326.5 62C329.2 62 335 58.4 335 56.7C335 55.9 335.9 54.5 337 53.5C338.4 52.2 338.7 51.3 338 50.6C335.9 48.5 337.2 48 345.3 48C351.9 48.1 353.9 48.4 355.8 50C358.6 52.4 357.9 54 354 54C351 54 347.6 56.5 348.5 58.1C349.5 59.6 353.3 59.1 355.4 57.1C358.5 54.2 361.4 54 361.8 56.7C362.1 58.5 361.2 59.4 357.6 61.2C354.5 62.7 353 64 353 65.3C353 67.1 352.5 67.2 347.1 66.7C342.3 66.2 340.8 66.4 339 67.8C337.1 69.4 337 69.7 338.3 70.8C339.5 71.8 340.6 71.7 343.9 70.4C347.9 68.8 348.2 68.8 350.1 70.6C351.3 71.7 352.8 73.7 353.5 75.1C354.6 77.1 356.5 78.1 361.9 79.7C369.7 82 370.7 81.4 366.9 76.6C364.3 73.3 365 73.3 370.6 76.6C373.5 78.3 375 78.8 375 77.9C375 77.2 375.9 75.6 377 74.4L379.1 72.3L376.5 69.2C373.6 65.7 373.4 64.7 375.6 62.9C377 61.8 377.6 62 379.9 64.8C382.7 68.2 385.4 69 386.4 66.5C386.7 65.7 387.9 65 389 65C390.2 65 392 64.2 393.1 63.1C395.1 61.3 395.1 61.3 391.4 58.1C389.1 56.1 387 55 385.9 55.3C383.1 56 381.4 53.4 383.4 51.5C384.3 50.6 385 49.3 385 48.6C385 46.8 381.7 44 379.6 44C378.7 44 377.7 43.3 377.4 42.5C377 41.7 375.7 41 374.5 41C373.1 41 371.1 39.7 369.4 37.8C366.9 34.7 366.2 34.5 358.6 33.9C349.9 33.2 343.3 34.5 339.9 37.6C338.3 39.1 338 39.1 338 37.8C338 36.9 339 35.5 340.3 34.7C342.4 33.1 342.5 33.1 340.4 33.1C336.7 33 329.6 36 325.8 39.3C322.8 42 322.3 42.9 323.1 44.7C323.7 46.4 324.7 47 327.1 47C329.5 47 330.1 47.3 329.6 48.6C329.3 49.5 329 50.3 329 50.5C329 51.2 319.2 57.8 317.2 58.4C314.5 59.3 314.1 56.6 316.6 55.2C318.8 54 318 50.6 315.3 50.2C313.6 49.9 313.1 49.1 312.8 45.2C312.2 39.4 313 38.3 318.3 37.5C320.6 37.1 324.3 35.7 326.5 34.4L330.5 32H323.3C316.6 32 316 32.2 313.6 35Z" fill="white" fill-opacity="0.2"/>
<path d="M511.6 63.9L508.8 65.8L511 67C512.2 67.6 513.8 67.9 514.6 67.6C515.5 67.3 516 67.7 516 68.9C516 69.9 517.1 71.3 518.5 72C519.9 72.7 521 73.8 521 74.3C521 75.4 527.6 74.4 534.9 72.2C541.3 70.2 543.6 67 540.4 64.5C539.4 63.7 537.4 63.2 536 63.5C526.7 65.1 519.9 65.2 517.5 63.6C514.5 61.7 515.1 61.6 511.6 63.9Z" fill="white" fill-opacity="0.2"/>
<path d="M574 94.5C573.3 95.4 572.1 95.9 571.3 95.6C570.5 95.3 568.5 96 566.8 97.3C563.1 100 561.5 103.7 563.1 105.6C564 106.7 563.9 107 562.9 107C562 107.1 562.3 107.8 563.8 108.9C565 110 566 111.3 566 111.9C566 112.5 567.1 113 568.4 113C570.2 113 571.1 113.8 571.8 115.9C572.8 118.6 572.6 118.8 569.9 119.4C567.2 119.9 565.7 122 568 122C570 122 568.9 123.8 566.5 124.4C563.3 125.2 563.3 127 566.4 127C567.8 127 569.2 127.4 569.5 128C569.8 128.5 569.5 129 568.7 129C567.4 129 563 133 563 134.2C563 135.1 568.9 133.3 570.5 132C571.2 131.4 574.9 131.1 578.7 131.2C586.2 131.4 588.5 130.6 587.6 128.3C587.3 127.5 587.7 126.2 588.5 125.3C590.6 123.3 589.9 121.6 586.9 121C585.6 120.7 584.4 119.9 584.2 119.1C583.8 117.2 578 108.8 576.1 107.3C574.7 106.3 574.7 106 576.3 104.3C578.7 101.6 578.4 100 575.6 100C572.7 100 571.3 98.5 573.4 97.7C575.1 97 577.5 93 576.2 93C575.7 93 574.7 93.7 574 94.5Z" fill="white" fill-opacity="0.2"/>
<path d="M553.8 112.6C553 114.4 552.1 115 550.7 114.6C548.1 114 546.6 118 548.8 119.8C550.3 120.9 550.2 121.2 548.2 122.6C542.8 126.4 547.5 128.7 555.1 126C560.8 124.1 562 122.8 562 118.8C562 117.3 562.5 115.8 563 115.5C565.2 114.1 564 111.2 560.9 110.6C555.9 109.6 555 109.9 553.8 112.6Z" fill="white" fill-opacity="0.2"/>
<path d="M232.8 264.1C231.2 265.2 230 267 230 268.1C230 270.7 231.5 270.5 233.7 267.7C236.7 263.9 237.7 263.8 244.3 266.1C251.9 268.7 253.6 270.2 254.5 274.6L255.1 278L261.8 277.4C265.5 277 269.4 276.3 270.5 275.7C272.3 274.8 272.1 274.5 268.5 273C266.3 272 263.4 270.1 262 268.6C259.2 265.5 252.2 263.3 242.5 262.5C236.4 262 235.2 262.2 232.8 264.1Z" fill="white" fill-opacity="0.2"/>
<path d="M276.8 279.3C276.5 282.1 276.1 282.6 273.1 283C267.7 283.8 268 286 273.4 286C275.9 286 278 286.4 278 287C278 288.6 281.2 288.1 282.5 286.3C283.3 285.3 285.7 284.5 289.4 284.2C292.5 284 295 283.4 295 282.9C295 282.5 293.4 280.9 291.5 279.4C289 277.5 287.2 276.9 285.4 277.3C283.9 277.6 281.5 277.4 279.9 277C277.3 276.2 277.1 276.4 276.8 279.3Z" fill="white" fill-opacity="0.2"/>
<path d="M1031.2 276.7C1030 276.9 1028.5 278 1028 279C1025.5 283.8 1031.6 286.1 1034.6 281.5C1036.1 279.1 1036 275.8 1034.3 276.1C1033.9 276.2 1032.5 276.5 1031.2 276.7Z" fill="white" fill-opacity="0.2"/>
<path d="M976.6 345.7C975.3 347 976.1 348.6 978.9 350.2C980.6 351.1 983 353.6 984.4 355.8C985.8 358 987.8 360.1 988.9 360.5C990 360.8 991.6 362.3 992.4 363.8C996.3 371.3 999.3 378.1 1001 383.3C1003 389.6 1008.6 395.8 1015 398.6C1018.3 400.1 1018.5 400.1 1020.3 397.9C1021.4 396.6 1021.9 394.8 1021.6 393.5C1021.3 392.3 1021.9 389.7 1023 387.7L1025 384H1022.5C1021.1 384 1020 383.5 1020 383C1020 382.4 1018.1 380.2 1015.9 378C1012.7 374.9 1012 373.7 1012.8 372.7C1013.7 371.7 1013 370.6 1009.7 367.9C1007.4 366 1003.8 363.4 1001.8 362.1C999.7 360.9 997.2 358.5 996.3 356.8C995 354.7 991.8 352.5 985.9 349.4C981.1 347.1 977 345.4 976.6 345.7Z" fill="white" fill-opacity="0.2"/>
<path d="M1023.5 399.7C1018.7 400.9 1017.5 404 1021.9 404C1023.6 404 1026.1 405.1 1027.8 406.5C1029.8 408.1 1032.9 409.4 1036.7 410C1050.4 412.3 1055.6 413.3 1057.2 414.1C1058.3 414.7 1060.5 414.5 1063.1 413.6C1065.9 412.6 1067.9 412.4 1069.1 413C1070.1 413.6 1074.2 413.9 1078.3 413.8C1082.4 413.8 1086.2 414 1086.9 414.4C1087.5 414.8 1089.5 414.7 1091.3 414.2C1093 413.6 1096.1 412.9 1098 412.6L1101.5 412L1099.1 414.1C1097.8 415.2 1096.1 416.4 1095.5 416.8C1094.8 417.2 1093.9 418.6 1093.5 419.9C1092.9 422 1093.5 421.7 1098.2 417.7C1101.2 415.2 1104.9 412.6 1106.5 412C1109.2 411 1109.3 410.7 1107.7 409.9C1106.5 409.2 1104.2 409.3 1100.5 410.1C1096.4 411 1094.4 411 1092.5 410.2C1090.6 409.3 1089.3 409.4 1086.8 410.4C1084.2 411.5 1082.3 411.6 1078 410.8C1075 410.2 1069.8 409.6 1066.5 409.5C1055.5 409.2 1048.9 407.1 1053.5 405.4C1056.1 404.4 1054 403 1049.9 403C1047.7 403 1044.8 402.3 1043.4 401.3C1041 399.8 1040.9 399.8 1040.3 401.8C1039.5 405 1033.7 404.8 1029.8 401.5C1028.2 400.1 1026.5 399.1 1026.2 399.1C1025.8 399.2 1024.6 399.5 1023.5 399.7Z" fill="white" fill-opacity="0.2"/>
<path d="M780.8 433.1C778.9 435.5 776.4 438.9 775.2 440.6C773.9 442.5 770.9 444.7 767.6 446.1C760.8 449 758.3 453.3 760 459C761.6 464.4 761.2 468 758.6 472.4C756.5 476 755.3 482.5 755.9 487.8C756.1 490.2 761.2 494 764.1 494C769.4 494 772.5 489.7 776.1 477.5C777.8 471.4 779.6 464.7 780.1 462.5C780.5 460.3 781.6 456.7 782.5 454.6C783.4 452.5 783.9 449.8 783.6 448.7C783.3 447.4 783.7 446.6 785.1 446.3C786.7 445.8 787 444.9 787 439.6C786.9 436.3 786.3 432.4 785.6 431.1L784.3 428.8L780.8 433.1Z" fill="white" fill-opacity="0.2"/>
</svg>
