<svg width="51" height="51" viewBox="0 0 51 51" fill="none" xmlns="http://www.w3.org/2000/svg">
<path d="M20.6878 27.5362C20.6878 24.9178 22.8104 22.7951 25.4288 22.7951C28.0473 22.7951 30.1699 24.9178 30.1699 27.5362C30.1699 30.1546 28.0473 32.2773 25.4288 32.2773C22.8104 32.2773 20.6878 30.1546 20.6878 27.5362Z" fill="white" fill-opacity="0.86"/>
<path fill-rule="evenodd" clip-rule="evenodd" d="M15.8912 16.2471C15.8912 12.5901 18.8558 9.62549 22.5128 9.62549H28.3448C32.0018 9.62549 34.9664 12.5901 34.9664 16.2471C34.9664 16.2783 34.9904 16.3044 35.0216 16.3069L39.7196 16.6885C41.8241 16.8594 43.5548 18.4156 43.9476 20.4901C44.95 25.7839 45.0247 31.2116 44.1685 36.531L43.9636 37.8041C43.5773 40.2039 41.6021 42.0298 39.1794 42.2265L35.0866 42.5589C28.6586 43.0809 22.1989 43.0809 15.7709 42.5589L11.6782 42.2265C9.25542 42.0298 7.28026 40.204 6.89398 37.8041L6.68906 36.531C5.83287 31.2116 5.90761 25.7839 6.90994 20.4901C7.30274 18.4156 9.03348 16.8594 11.1379 16.6885L15.836 16.3069C15.8672 16.3044 15.8912 16.2783 15.8912 16.2471ZM25.4288 19.6344C21.0648 19.6344 17.5271 23.1722 17.5271 27.5362C17.5271 31.9002 21.0648 35.438 25.4288 35.438C29.7929 35.438 33.3306 31.9002 33.3306 27.5362C33.3306 23.1722 29.7929 19.6344 25.4288 19.6344Z" fill="white" fill-opacity="0.86"/>
</svg>
